<svg xmlns="http://www.w3.org/2000/svg" viewBox="0 2.299999952316284 181.9499969482422 48.400001525878906" data-asc="0.966" width="181.9499969482422" height="48.400001525878906"><defs/><g fill="#000000"><g transform="translate(0, 0)"><path d="M0.15 44.85Q0.95 42.85 2.43 40.20Q3.90 37.55 5 35.90L6.10 34.30Q6.80 33.30 7.50 33.30Q8.05 33.30 8.05 33.85L7.90 34.35Q6.10 38.90 6.10 42.20Q6.10 44.85 7.28 46.52Q8.45 48.20 10.95 48.20Q14.70 48.20 17 44.92Q19.30 41.65 19.30 37.85Q19.30 34.60 17.08 28.57Q14.85 22.55 14.85 20.40Q14.85 15.75 18.83 12.92Q22.80 10.10 27.55 10.10Q28.40 10.10 29.23 10.20Q30.05 10.30 31.05 10.52Q32.05 10.75 32.65 11.25Q33.25 11.75 33.25 12.50Q33.25 13.50 31.85 15.90Q30.45 18.30 29.50 19.55Q29.15 19.80 28.90 19.80Q28.55 19.80 28.55 19.20Q28.55 17.80 28.85 15.40Q28.85 11.50 25.85 11.50Q23.30 11.50 21.53 13.25Q19.75 15.00 19.75 17.50Q19.75 20.80 22.08 26.70Q24.40 32.60 24.40 35.80Q24.40 41.80 19.68 45.67Q14.95 49.55 9.05 49.55Q8.05 49.55 6.65 49.35Q5.25 49.15 3.70 48.72Q2.15 48.30 1.08 47.47Q0 46.65 0 45.60Q0 45.20 0.15 44.85ZM32.90 40.75Q35 38.65 38.45 34.70Q38.60 34.55 38.70 34.55Q38.80 34.55 38.80 34.75Q38.80 35.70 38.05 36.60Q34.35 40.70 31.50 43.45Q25.50 49.25 23.55 49.25Q22.85 49.25 22.85 48.35Q22.85 47.30 23.65 45.20Q24.45 43.10 25.25 41.50L26.05 39.95Q27.20 37.90 29.85 32.95Q32.50 28.00 34.98 23.60Q37.45 19.20 39.65 15.65L35.70 15.65Q35.20 15.65 35.20 15.40Q35.20 15.15 35.60 14.90Q36 14.65 36.45 14.65Q37.55 14.65 40.30 14.60Q42.75 10.75 44.50 8.50Q46.05 6.55 46.65 6.55Q47 6.55 47 7.00Q47 8.05 45.10 11.50L43.40 14.60L48.55 14.60Q49 14.60 49 14.85Q49 15.65 47.55 15.65L42.85 15.65Q31.30 37.55 30.70 38.60Q28.60 42.45 28.60 43.60Q28.60 43.95 28.85 43.95Q29.55 43.95 32.90 40.75ZM47.45 31.35Q48.05 30.10 48.05 29.15Q48.05 28.35 47.55 28.35Q47.25 28.35 46.88 28.52Q46.50 28.70 46.30 28.90L46.05 29.10Q44.50 30.45 42.18 34.02Q39.85 37.60 39.85 38.60Q39.85 38.80 39.95 38.80Q40.25 38.80 41.28 38.30Q42.30 37.80 44.23 35.95Q46.15 34.10 47.45 31.35M45.20 42.80Q47.85 40.35 52.80 34.70Q52.95 34.55 53.05 34.55Q53.15 34.55 53.15 34.75Q53.15 35.70 52.40 36.60Q48.70 40.70 45.85 43.45Q43.75 45.55 40.85 47.47Q37.95 49.40 36.05 49.40Q33.75 49.40 33.75 46.20Q33.75 40.90 37.68 35.10Q41.60 29.30 46.75 27.25Q48.90 26.35 50.65 26.35Q52.60 26.35 52.60 27.90Q52.60 30.80 48.50 34.55Q44.40 38.30 39.30 40.25Q39.10 40.30 38.95 40.60Q38.20 42.65 38.20 44.25Q38.20 46.05 39.55 46.05Q41.70 46.05 45.20 42.80ZM62.60 23.95Q66.15 21.45 68.98 18.27Q71.80 15.10 73.28 12.42Q74.75 9.75 75.50 7.80Q76.25 5.85 76.25 5.00Q76.25 4.50 75.90 4.50Q75.20 4.50 74.20 5.50Q72.30 7.40 69.90 11.00Q67.50 14.60 66.03 17.17Q64.55 19.75 62.20 24.05Q62.40 24.05 62.60 23.95M57.25 40.75Q59.35 38.65 62.80 34.70Q62.95 34.55 63.05 34.55Q63.15 34.55 63.15 34.75Q63.15 35.70 62.40 36.60Q58.70 40.70 55.85 43.45Q49.60 49.35 47.90 49.35Q47.15 49.35 47.15 48.30Q47.15 47.75 47.28 47.10Q47.40 46.45 47.70 45.67Q48.00 44.90 48.23 44.38Q48.45 43.85 48.88 42.88Q49.30 41.90 49.45 41.55Q50.85 38.40 58.05 24.95Q67.90 7.00 76.15 2.90Q77.35 2.30 78.55 2.30Q79.95 2.30 79.95 3.60Q79.95 6.60 77.90 10.17Q75.85 13.75 72.90 16.75Q69.95 19.75 67.13 22.00Q64.30 24.25 62.25 25.40Q61.95 25.50 61.70 25.85Q59.50 29.40 57.40 33.47Q55.30 37.55 54.25 39.90L53.25 42.20Q53.00 42.95 53.00 43.20Q53.00 43.65 53.35 43.65Q54.35 43.65 57.25 40.75ZM74.15 23.95Q77.70 21.45 80.53 18.27Q83.35 15.10 84.83 12.42Q86.30 9.75 87.05 7.80Q87.80 5.85 87.80 5.00Q87.80 4.50 87.45 4.50Q86.75 4.50 85.75 5.50Q83.85 7.40 81.45 11.00Q79.05 14.60 77.58 17.17Q76.10 19.75 73.75 24.05Q73.95 24.05 74.15 23.95M68.80 40.75Q70.90 38.65 74.35 34.70Q74.50 34.55 74.60 34.55Q74.70 34.55 74.70 34.75Q74.70 35.70 73.95 36.60Q70.25 40.70 67.40 43.45Q61.15 49.35 59.45 49.35Q58.70 49.35 58.70 48.30Q58.70 47.75 58.83 47.10Q58.95 46.45 59.25 45.67Q59.55 44.90 59.77 44.38Q60 43.85 60.43 42.88Q60.85 41.90 61 41.55Q62.40 38.40 69.60 24.95Q79.45 7.00 87.70 2.90Q88.90 2.30 90.10 2.30Q91.50 2.30 91.50 3.60Q91.50 6.60 89.45 10.17Q87.40 13.75 84.45 16.75Q81.50 19.75 78.67 22.00Q75.85 24.25 73.80 25.40Q73.50 25.50 73.25 25.85Q71.05 29.40 68.95 33.47Q66.85 37.55 65.80 39.90L64.80 42.20Q64.55 42.95 64.55 43.20Q64.55 43.65 64.90 43.65Q65.90 43.65 68.80 40.75ZM84.15 45.15Q80 48.95 78.45 48.95Q77.75 48.95 77.75 48.15Q77.75 47.15 78.63 45.10Q79.50 43.05 80.40 41.50L81.30 39.95Q81.50 39.60 81.50 39.50Q81.50 39.40 81.40 39.40Q81.20 39.40 80.65 39.95Q79.15 41.60 77.22 43.47Q75.30 45.35 74.10 46.40L72.95 47.40Q71 48.90 69.95 48.90Q68.85 48.90 68.85 47.20Q68.85 46.35 69.32 44.60Q69.80 42.85 70.05 42.25Q71.20 39.45 72.92 36.80Q74.65 34.15 77 31.72Q79.35 29.30 82.47 27.80Q85.60 26.30 88.95 26.30Q91.75 26.30 91.75 27.15Q91.75 27.65 90.50 27.65Q85.90 27.65 81.88 31.57Q77.85 35.50 75.35 40.60Q74.65 42 74.65 42.95Q74.65 43.50 75 43.50Q75.60 43.50 76.55 42.65Q77.15 42.10 78.17 41.20Q79.20 40.30 81.50 37.75Q83.80 35.20 85.15 33Q85.35 32.60 85.77 32.05Q86.20 31.50 87.40 30.57Q88.60 29.65 89.80 29.65Q90.45 29.65 90.45 30.00Q90.45 30.10 90.30 30.35Q90.10 30.75 89.17 32.35Q88.25 33.95 87.45 35.38Q86.65 36.80 85.75 38.47Q84.85 40.15 84.32 41.35Q83.80 42.55 83.80 42.95Q83.80 43.25 84.05 43.25Q84.80 43.25 87.70 40.35Q89.90 38.05 92.85 34.70Q93 34.55 93.10 34.55Q93.20 34.55 93.20 34.75Q93.20 35.70 92.45 36.60Q87.55 42.05 84.15 45.15ZM101.35 37.40Q105.35 34.05 112 27.75Q112.80 16.95 113.75 13.10Q114.20 11.60 115.22 10.47Q116.25 9.35 116.95 9.35Q117.50 9.35 117.50 10.15Q117.50 10.45 117.45 10.90Q116.80 16.85 116.40 23.55Q121.60 18.50 125.32 15.25Q129.05 12.00 130.20 11.30L131.30 10.55Q133.75 9.35 135.85 9.35Q137.35 9.35 137.35 9.85Q137.35 10.20 136.57 10.80Q135.80 11.40 134.93 11.90Q134.05 12.40 133.03 12.95Q132 13.50 131.90 13.55Q124.05 18.20 116.30 25.60Q116.10 31.00 116.10 33.70Q116.10 45.45 118.45 46.50Q118.85 46.65 118.85 47.10Q118.85 48.05 117 48.95Q115.15 49.85 114.20 49.85Q113.05 49.85 112.85 49Q111.70 44.55 111.70 36.75Q111.70 33.40 111.85 30.10Q109.35 32.75 107.13 35.45Q104.90 38.15 103.90 39.50L102.95 40.90Q95.55 50.70 94.05 50.70Q93.65 50.70 93.65 50Q93.65 48.10 94.75 45.82Q95.85 43.55 97.32 41.75Q98.80 39.95 99.90 38.80Q101 37.65 101.35 37.40ZM131.55 39.95L133.10 37.30Q133.10 37.15 133 37.15Q132.90 37.15 132.75 37.30Q130.90 39.45 128.90 41.47Q126.90 43.50 125.85 44.45L124.75 45.40Q120.85 49.10 119.35 49.10Q118.65 49.10 118.65 48.20Q118.65 47.20 119.47 45.15Q120.30 43.10 121.15 41.50L121.95 39.95Q126.15 32.10 128.15 29.45Q129.15 28.15 130.60 27.27Q132.05 26.40 132.85 26.40Q133.35 26.40 133.35 26.75Q133.35 26.95 133.15 27.30Q133.05 27.50 131.10 30.62Q129.15 33.75 127.95 36Q124.65 42.05 124.65 42.95Q124.65 43.30 124.95 43.30Q125.40 43.30 126.50 42.40Q129.75 39.60 133.65 34.85Q135.80 32.55 138.15 28.85Q139.75 26.40 142.40 26.40Q142.85 26.40 142.85 26.80L142.45 27.75Q141.75 29.00 139.32 33.22Q136.90 37.45 136.55 38.05Q134.50 41.65 134.50 42.80Q134.50 43.25 134.80 43.25Q135.30 43.25 138 40.75Q140.10 38.65 143.55 34.70Q143.70 34.55 143.80 34.55Q143.90 34.55 143.90 34.75Q143.90 35.70 143.15 36.60Q139.45 40.70 136.60 43.45Q134.65 45.30 132.22 47.15Q129.80 49 128.70 49Q127.95 49 127.95 47.95Q127.95 47.35 128.85 45.35Q129.75 43.35 130.65 41.65L131.55 39.95ZM153.35 23.95Q156.90 21.45 159.73 18.27Q162.55 15.10 164.03 12.42Q165.50 9.75 166.25 7.80Q167 5.85 167 5.00Q167 4.50 166.65 4.50Q165.95 4.50 164.95 5.50Q163.05 7.40 160.65 11.00Q158.25 14.60 156.78 17.17Q155.30 19.75 152.95 24.05Q153.15 24.05 153.35 23.95M148 40.75Q150.10 38.65 153.55 34.70Q153.70 34.55 153.80 34.55Q153.90 34.55 153.90 34.75Q153.90 35.70 153.15 36.60Q149.45 40.70 146.60 43.45Q140.35 49.35 138.65 49.35Q137.90 49.35 137.90 48.30Q137.90 47.75 138.03 47.10Q138.15 46.45 138.45 45.67Q138.75 44.90 138.98 44.38Q139.20 43.85 139.63 42.88Q140.05 41.90 140.20 41.55Q141.60 38.40 148.80 24.95Q158.65 7.00 166.90 2.90Q168.10 2.30 169.30 2.30Q170.70 2.30 170.70 3.60Q170.70 6.60 168.65 10.17Q166.60 13.75 163.65 16.75Q160.70 19.75 157.88 22.00Q155.05 24.25 153 25.40Q152.70 25.50 152.45 25.85Q150.25 29.40 148.15 33.47Q146.05 37.55 145 39.90L144 42.20Q143.75 42.95 143.75 43.20Q143.75 43.65 144.10 43.65Q145.10 43.65 148 40.75ZM155.70 43.45Q149.85 48.95 148.20 48.95Q147.35 48.95 147.35 47.80Q147.35 46.65 148.25 44.45Q149.15 42.25 150.05 40.60L150.95 39Q154.75 32.35 156.70 29.45Q157.55 28.20 158.88 27.32Q160.20 26.45 161.35 26.45Q161.75 26.45 161.75 26.80Q161.75 27.05 161.40 27.75Q160.80 28.85 158.45 33Q156.10 37.15 155.65 38Q153.60 41.60 153.60 42.80Q153.60 43.25 153.90 43.25Q154.40 43.25 157.10 40.75Q159.20 38.65 162.65 34.70Q162.80 34.55 162.90 34.55Q163 34.55 163 34.75Q163 35.70 162.25 36.60Q158.55 40.70 155.70 43.45M162.35 23.60Q161.10 23.60 161.10 22.10Q161.10 20.70 162.15 19.27Q163.20 17.85 164.45 17.85Q165.95 17.85 165.95 19.55Q165.95 20.95 164.80 22.27Q163.65 23.60 162.35 23.60ZM174.65 43.45Q168.80 48.95 166.95 48.95Q166.10 48.95 166.10 48.05Q166.10 47.50 166.35 46.67Q166.60 45.85 166.97 45.02Q167.35 44.20 167.70 43.50Q168.05 42.80 168.40 42.20Q168.75 41.60 168.75 41.55Q169.50 40.20 171 37.77Q172.50 35.35 173.40 33.77Q174.30 32.20 174.30 31.85Q174.30 31.60 174.05 31.60L173.35 31.85Q171.05 33.50 167.85 36.97Q164.65 40.45 162.60 43.10L160.55 45.70Q159.90 46.65 159.40 47.25Q158.90 47.85 157.97 48.42Q157.05 49 156.10 49Q155.40 49 155.40 48.60Q155.40 48.20 156.35 46.27Q157.30 44.35 158.25 42.60L159.20 40.90L164.10 32.30Q164.85 31.05 165.33 30.37Q165.80 29.70 166.65 28.67Q167.50 27.65 168.47 27.15Q169.45 26.65 170.55 26.55Q170.95 26.55 170.95 26.90Q170.95 27.20 170.80 27.40Q169.65 29.20 167.28 33.35Q164.90 37.50 164.25 38.75Q164.10 39.05 164.10 39.20Q164.10 39.30 164.20 39.30Q164.30 39.30 164.70 39Q165.65 37.90 167.18 36.25Q168.70 34.60 172.35 31.27Q176 27.95 178.35 26.80Q178.90 26.55 179.40 26.55Q180.10 26.55 180.10 27.35Q179.70 29.70 176.25 35.40Q172.45 41.65 172.45 42.80Q172.45 43.20 172.80 43.20Q173.05 43.20 173.38 43.02Q173.70 42.85 174.10 42.52Q174.50 42.20 174.78 41.95Q175.05 41.70 175.50 41.27Q175.95 40.85 176.05 40.75Q178.15 38.65 181.60 34.70Q181.75 34.55 181.85 34.55Q181.95 34.55 181.95 34.75Q181.95 35.70 181.20 36.60Q177.50 40.70 174.65 43.45Z"/></g></g></svg>